<?xml version="1.0" encoding="UTF-8"?>
<!DOCTYPE svg PUBLIC "-//W3C//DTD SVG 1.1//EN" "http://www.w3.org/Graphics/SVG/1.1/DTD/svg11.dtd">
<!-- Creator: CorelDRAW 2018 (64-Bit) -->
<svg xmlns="http://www.w3.org/2000/svg" xml:space="preserve" width="293px" height="233px" version="1.1" style="shape-rendering:geometricPrecision; text-rendering:geometricPrecision; image-rendering:optimizeQuality; fill-rule:evenodd; clip-rule:evenodd"
viewBox="0 0 49.626 39.486"
 xmlns:xlink="http://www.w3.org/1999/xlink">
 <defs>
  <style type="text/css">
   <![CDATA[
    .str0 {stroke:#2E2E2D;stroke-width:0.339;stroke-miterlimit:22.9256}
    .fil1 {fill:#2E2E2D}
    .fil0 {fill:#FDFAF4}
    .fil2 {fill:#2E2E2D;fill-rule:nonzero}
   ]]>
  </style>
 </defs>
 <g id="Layer_x0020_1">
  <metadata id="CorelCorpID_0Corel-Layer"/>
  <rect class="fil0 str0" x="0.169" y="0.169" width="49.287" height="39.147"/>
  <path class="fil1" d="M18.77 22.782c4.029,0 8.057,0 12.086,0 0,-0.079 0,-0.158 0,-0.237 -4.029,0 -8.057,0 -12.086,0 0,0.079 0,0.158 0,0.237zm0 0.696c4.029,0 8.057,0 12.086,0 0,-0.079 0,-0.158 0,-0.237 -4.029,0 -8.057,0 -12.086,0 0,0.079 0,0.158 0,0.237zm0 0.695c4.029,0 8.057,0 12.086,0 0,-0.078 0,-0.157 0,-0.236 -4.029,0 -8.057,0 -12.086,0 0,0.079 0,0.158 0,0.236zm0 0.696c4.029,0 8.057,0 12.086,0 0,-0.079 0,-0.157 0,-0.236 -4.029,0 -8.057,0 -12.086,0 0,0.079 0,0.157 0,0.236zm-8.774 -11.825l1.858 0 0 2.752 -1.858 0 0 -2.752zm6.144 -0.093l1.951 0 0 2.938 -2.044 0 0 -2.938 0.093 0zm1.765 0.186l-1.672 0 0 2.566 1.672 0 0 -2.566zm2.107 -0.186l1.951 0 0 2.938 -2.044 0 0 -2.938 0.093 0zm1.765 0.186l-1.672 0 0 2.566 1.672 0 0 -2.566zm2.107 -0.186l1.951 0 0 2.938 -2.044 0 0 -2.938 0.093 0zm1.765 0.186l-1.672 0 0 2.566 1.672 0 0 -2.566zm2.107 -0.186l1.951 0 0 2.938 -2.044 0 0 -2.938 0.093 0zm1.765 0.186l-1.672 0 0 2.566 1.672 0 0 -2.566zm2.107 -0.186l1.951 0 0 2.938 -2.044 0 0 -2.938 0.093 0zm1.765 0.186l-1.672 0 0 2.566 1.672 0 0 -2.566zm5.004 -0.093l1.858 0 0 2.752 -1.858 0 0 -2.752zm-28.401 4.056l1.858 0 0 2.752 -1.858 0 0 -2.752zm6.144 -0.093l1.951 0 0 2.938 -2.044 0 0 -2.938 0.093 0zm1.765 0.186l-1.672 0 0 2.566 1.672 0 0 -2.566zm2.107 -0.186l1.951 0 0 2.938 -2.044 0 0 -2.938 0.093 0zm1.765 0.186l-1.672 0 0 2.566 1.672 0 0 -2.566zm5.979 -0.186l1.951 0 0 2.938 -2.044 0 0 -2.938 0.093 0zm1.765 0.186l-1.672 0 0 2.566 1.672 0 0 -2.566zm2.107 -0.186l1.951 0 0 2.938 -2.044 0 0 -2.938 0.093 0zm1.765 0.186l-1.672 0 0 2.566 1.672 0 0 -2.566zm5.004 -0.093l1.858 0 0 2.752 -1.858 0 0 -2.752zm-24.172 -8.672l21.177 0 0 0.465 -0.658 0 0 0.663 -0.506 0 0 -0.663 -1.252 0 0 0.663c-0.169,0 -0.338,0 -0.507,0l0 -0.663 -1.252 0 0 0.663c-0.169,0 -0.338,0 -0.507,0l0 -0.663 -1.252 0 0 0.663c-0.169,0 -0.337,0 -0.506,0l0 -0.663 -1.253 0 0 0.663c-0.168,0 -0.337,0 -0.506,0l0 -0.663 -1.252 0 0 0.663c-0.169,0 -0.338,0 -0.507,0l0 -0.663 -1.252 0 0 0.663c-0.169,0 -0.338,0 -0.507,0l0 -0.663 -1.252 0 0 0.663c-0.169,0 -0.337,0 -0.506,0l0 -0.663 -1.252 0 0 0.663c-0.169,0 -0.338,0 -0.507,0l0 -0.663 -1.252 0 0 0.663c-0.169,0 -0.338,0 -0.507,0l0 -0.663 -1.252 0 0 0.663c-0.169,0 -0.338,0 -0.506,0l0 -0.663 -1.253 0 0 0.663 -0.506 0 0 -0.663 -0.667 0 0 -0.465zm-3.093 0.143l13.681 -6.807c4.589,2.281 9.176,4.565 13.764,6.848l-0.207 0.416 -13.557 -6.745 -13.557 6.745 -0.207 -0.416 0.083 -0.041zm-5.196 12.846l37.754 0 0 -0.465 -8.946 0 0 -9.077 1.064 0 0 -0.372 -1.357 0c-0.331,0 -0.465,-0.09 -0.613,-0.19 -0.239,-0.161 -0.508,-0.343 -1.319,-0.343 -0.811,0 -1.079,0.182 -1.318,0.343 -0.149,0.1 -0.283,0.19 -0.614,0.19 -0.331,0 -0.464,-0.09 -0.613,-0.19 -0.239,-0.161 -0.508,-0.343 -1.319,-0.343 -0.81,0 -1.079,0.182 -1.318,0.343 -0.149,0.1 -0.282,0.19 -0.613,0.19 -0.331,0 -0.465,-0.09 -0.614,-0.19 -0.239,-0.161 -0.508,-0.343 -1.318,-0.343 -0.811,0 -1.08,0.182 -1.319,0.343 -0.148,0.1 -0.282,0.19 -0.613,0.19 -0.331,0 -0.465,-0.09 -0.613,-0.19 -0.239,-0.161 -0.508,-0.343 -1.319,-0.343 -0.811,0 -1.079,0.182 -1.318,0.343 -0.149,0.1 -0.283,0.19 -0.614,0.19 -0.331,0 -0.464,-0.09 -0.613,-0.19 -0.239,-0.161 -0.508,-0.343 -1.319,-0.343 -0.793,0 -1.071,0.198 -1.307,0.365 -0.15,0.107 -0.278,0.198 -0.608,0.169l-0.009 -0.001 -1.55 0 0 0.372 1.239 0 0 9.077 -8.893 0 0 0.465zm17.766 -4.431c0.741,0 1.482,0 2.222,0l0 3.966 0.475 0 0 -9.104c-0.224,-0.043 -0.355,-0.132 -0.496,-0.227 -0.195,-0.131 -0.414,-0.279 -1.111,-0.279 -0.698,0 -0.917,0.148 -1.111,0.279 -0.143,0.097 -0.276,0.186 -0.507,0.229l0 9.102 0.528 0 0 -3.966zm10.41 3.966l-3.224 0 0 -9.1c0.239,-0.041 0.374,-0.132 0.52,-0.231 0.195,-0.131 0.413,-0.279 1.111,-0.279 0.698,0 0.917,0.148 1.111,0.279 0.138,0.093 0.267,0.18 0.482,0.224l0 9.107zm-3.856 0l-3.225 0 0 -9.101c0.235,-0.042 0.369,-0.132 0.514,-0.23 0.194,-0.131 0.413,-0.279 1.11,-0.279 0.698,0 0.917,0.148 1.111,0.279 0.14,0.094 0.27,0.182 0.49,0.225l0 9.106zm-7.714 0l-3.224 0 0 -9.104c0.226,-0.042 0.357,-0.131 0.499,-0.227 0.195,-0.131 0.413,-0.279 1.111,-0.279 0.698,0 0.916,0.148 1.111,0.279 0.143,0.096 0.275,0.186 0.503,0.228l0 9.103zm-3.856 0l-3.225 0 0 -9.082c0.229,-0.032 0.362,-0.126 0.511,-0.232 0.191,-0.136 0.416,-0.296 1.092,-0.296 0.698,0 0.917,0.148 1.111,0.279 0.144,0.097 0.278,0.187 0.511,0.229l0 9.102zm-12.75 -10.522l8.336 0 0 -0.465 -8.336 0 0 0.465zm29.418 0l8.336 0 0 -0.465 -8.336 0 0 0.465zm-16.584 11.656l12.086 0 0 -0.236 -12.086 0 0 0.236zm-12.834 3.593l37.754 0 0 -0.465 -37.754 0 0 0.465z"/>
  <path class="fil2" d="M7.126 32.068l0 1.228c0,0.376 0.002,0.682 0.007,0.917 0.004,0.235 0.015,0.418 0.031,0.551 0.016,0.133 0.042,0.229 0.077,0.29 0.035,0.06 0.101,0.097 0.199,0.111l0.355 0.028c0.075,0 0.112,0.019 0.112,0.056 0,0.046 -0.046,0.07 -0.139,0.07 -0.238,0 -0.441,-0.003 -0.611,-0.007 -0.17,-0.005 -0.329,-0.01 -0.478,-0.014l-0.879 0.021c-0.093,0 -0.139,-0.024 -0.139,-0.07 0,-0.037 0.037,-0.056 0.112,-0.056 0.051,0 0.093,-0.002 0.125,-0.007 0.033,-0.005 0.077,-0.013 0.133,-0.024 0.055,-0.012 0.098,-0.05 0.129,-0.115 0.03,-0.066 0.052,-0.154 0.066,-0.265 0.014,-0.112 0.023,-0.305 0.028,-0.579 0.004,-0.275 0.007,-0.577 0.007,-0.907l0 -1.228c0,-0.288 -0.001,-0.556 -0.004,-0.802 -0.002,-0.247 -0.005,-0.472 -0.01,-0.677 0,-0.116 -0.022,-0.206 -0.066,-0.269 -0.045,-0.062 -0.109,-0.103 -0.192,-0.122 -0.084,-0.018 -0.189,-0.028 -0.314,-0.028 -0.079,0 -0.119,-0.02 -0.119,-0.062 0,-0.042 0.049,-0.063 0.147,-0.063l1.004 0.021 4.039 0c0.177,0 0.334,-0.002 0.471,-0.007 0.137,-0.005 0.273,-0.009 0.408,-0.014 0.098,0 0.147,0.021 0.147,0.063 0,0.042 -0.042,0.062 -0.126,0.062l-0.202 0.021c-0.172,0.033 -0.258,0.166 -0.258,0.398 0,0.074 -0.004,0.269 -0.011,0.583 -0.007,0.313 -0.01,0.612 -0.01,0.896l0 1.228c0,0.376 0.002,0.682 0.007,0.917 0.004,0.235 0.015,0.418 0.031,0.551 0.016,0.133 0.042,0.229 0.077,0.29 0.035,0.06 0.101,0.097 0.199,0.111l0.355 0.028c0.075,0 0.112,0.019 0.112,0.056 0,0.046 -0.046,0.07 -0.139,0.07 -0.238,0 -0.441,-0.003 -0.611,-0.007 -0.17,-0.005 -0.329,-0.01 -0.478,-0.014l-0.872 0.021c-0.097,0 -0.146,-0.024 -0.146,-0.07 0,-0.037 0.037,-0.056 0.111,-0.056 0.052,0 0.094,-0.002 0.126,-0.007 0.033,-0.005 0.077,-0.013 0.133,-0.024 0.055,-0.012 0.098,-0.05 0.129,-0.115 0.03,-0.066 0.052,-0.154 0.066,-0.265 0.014,-0.112 0.023,-0.305 0.028,-0.579 0.004,-0.275 0.007,-0.577 0.007,-0.907l0 -1.228c0,-0.302 -0.001,-0.583 -0.004,-0.841 -0.002,-0.258 -0.006,-0.494 -0.01,-0.708 0,-0.065 -0.021,-0.097 -0.063,-0.097l-3.02 0c-0.042,0 -0.063,0.032 -0.063,0.097 0,0.033 -0.003,0.244 -0.007,0.635 -0.005,0.391 -0.007,0.695 -0.007,0.914z"/>
  <path id="1" class="fil2" d="M13.46 33.296l0 -1.228c0,-0.288 -0.001,-0.556 -0.004,-0.802 -0.002,-0.247 -0.005,-0.472 -0.01,-0.677 0,-0.116 -0.022,-0.206 -0.066,-0.269 -0.045,-0.062 -0.108,-0.103 -0.192,-0.122 -0.084,-0.018 -0.189,-0.028 -0.314,-0.028 -0.079,0 -0.119,-0.02 -0.119,-0.062 0,-0.042 0.051,-0.063 0.154,-0.063l1.004 0.021 1.012 -0.021c0.372,0 0.683,0.053 0.935,0.16 0.134,0.056 0.255,0.135 0.362,0.238 0.089,0.083 0.169,0.2 0.241,0.348 0.072,0.149 0.108,0.31 0.108,0.482 0,0.493 -0.16,0.897 -0.481,1.213 -0.321,0.317 -0.733,0.475 -1.235,0.475l-0.146 -0.007c-0.056,-0.009 -0.084,-0.03 -0.084,-0.063 0,-0.051 0.065,-0.077 0.195,-0.077 0.219,0 0.423,-0.102 0.614,-0.307 0.214,-0.228 0.321,-0.509 0.321,-0.844 0,-0.186 -0.019,-0.344 -0.056,-0.474 -0.065,-0.228 -0.184,-0.419 -0.356,-0.572 -0.111,-0.102 -0.229,-0.173 -0.352,-0.213 -0.123,-0.039 -0.238,-0.059 -0.345,-0.059 -0.126,0 -0.212,0.008 -0.258,0.024 -0.047,0.017 -0.07,0.062 -0.07,0.136l0 2.791c0,0.293 0.001,0.572 0.003,0.837 0.003,0.265 0.012,0.469 0.028,0.614 0.017,0.144 0.042,0.246 0.077,0.307 0.035,0.06 0.101,0.097 0.199,0.111l0.356 0.028c0.074,0 0.111,0.019 0.111,0.056 0,0.046 -0.044,0.07 -0.132,0.07 -0.238,0 -0.441,-0.003 -0.611,-0.007 -0.17,-0.005 -0.326,-0.01 -0.471,-0.014l-0.879 0.021c-0.093,0 -0.139,-0.024 -0.139,-0.07 0,-0.037 0.037,-0.056 0.112,-0.056 0.051,0 0.093,-0.002 0.125,-0.007 0.033,-0.005 0.077,-0.013 0.133,-0.024 0.055,-0.012 0.098,-0.05 0.129,-0.115 0.03,-0.066 0.052,-0.154 0.066,-0.265 0.014,-0.112 0.023,-0.305 0.028,-0.579 0.005,-0.275 0.007,-0.577 0.007,-0.907z"/>
  <path id="2" class="fil2" d="M17.269 32.682c0,-0.698 0.218,-1.302 0.655,-1.814 0.526,-0.614 1.268,-0.921 2.226,-0.921 0.865,0 1.551,0.235 2.058,0.705 0.506,0.47 0.76,1.104 0.76,1.904 0,0.819 -0.258,1.495 -0.774,2.03 -0.535,0.554 -1.24,0.83 -2.114,0.83 -0.926,0 -1.644,-0.3 -2.156,-0.9 -0.437,-0.511 -0.655,-1.123 -0.655,-1.834zm3.104 2.385c0.386,0 0.716,-0.123 0.99,-0.369 0.419,-0.377 0.628,-1.005 0.628,-1.884 0,-0.762 -0.194,-1.375 -0.582,-1.838 -0.389,-0.463 -0.876,-0.694 -1.462,-0.694 -0.479,0 -0.865,0.147 -1.158,0.44 -0.372,0.372 -0.558,0.953 -0.558,1.744 0,0.744 0.189,1.357 0.565,1.841 0.396,0.507 0.921,0.76 1.577,0.76z"/>
  <path id="3" class="fil2" d="M25.375 30.519l0 1.688c0,0.052 0.016,0.077 0.048,0.077l0.572 -0.014c0.289,0 0.528,0.034 0.719,0.101 0.191,0.068 0.375,0.175 0.555,0.321 0.179,0.147 0.319,0.313 0.422,0.499 0.102,0.186 0.153,0.395 0.153,0.628 0,0.409 -0.149,0.756 -0.446,1.039 -0.34,0.321 -0.812,0.482 -1.417,0.482l-1.067 -0.042 -0.879 0.021c-0.093,0 -0.139,-0.024 -0.139,-0.07 0,-0.037 0.037,-0.056 0.111,-0.056 0.051,0 0.093,-0.002 0.126,-0.007 0.032,-0.005 0.077,-0.013 0.132,-0.024 0.056,-0.012 0.099,-0.05 0.129,-0.115 0.031,-0.066 0.053,-0.154 0.067,-0.265 0.014,-0.112 0.023,-0.305 0.028,-0.579 0.004,-0.275 0.007,-0.577 0.007,-0.907l0 -1.228c0,-0.288 -0.002,-0.556 -0.004,-0.802 -0.002,-0.247 -0.006,-0.472 -0.01,-0.677 0,-0.116 -0.022,-0.206 -0.067,-0.269 -0.044,-0.062 -0.108,-0.103 -0.191,-0.122 -0.084,-0.018 -0.189,-0.028 -0.314,-0.028 -0.079,0 -0.119,-0.018 -0.119,-0.055 0,-0.047 0.054,-0.07 0.16,-0.07l1.005 0.021 1.883 -0.007c0.131,0 0.22,-0.008 0.269,-0.025 0.049,-0.016 0.092,-0.031 0.129,-0.045 0.033,0 0.049,0.021 0.049,0.063 0,0.009 -0.007,0.044 -0.021,0.105 -0.014,0.06 -0.026,0.136 -0.035,0.226 -0.009,0.091 -0.016,0.196 -0.021,0.314 -0.004,0.119 -0.01,0.204 -0.017,0.255 -0.007,0.051 -0.029,0.076 -0.067,0.076 -0.041,0 -0.065,-0.037 -0.069,-0.111 0,-0.047 -0.001,-0.088 -0.004,-0.126 -0.002,-0.037 -0.016,-0.083 -0.042,-0.139 -0.025,-0.056 -0.078,-0.105 -0.157,-0.147 -0.079,-0.042 -0.179,-0.062 -0.3,-0.062l-1.116 -0.021c-0.042,0 -0.062,0.032 -0.062,0.097zm0 2.1l0 1.653c0,0.237 0.015,0.397 0.045,0.478 0.03,0.081 0.099,0.145 0.206,0.192 0.083,0.033 0.166,0.055 0.247,0.066 0.082,0.012 0.171,0.018 0.269,0.018 0.246,0 0.449,-0.079 0.607,-0.238 0.158,-0.158 0.237,-0.376 0.237,-0.655 0,-0.609 -0.226,-1.072 -0.677,-1.388 -0.088,-0.066 -0.201,-0.111 -0.338,-0.136 -0.137,-0.026 -0.322,-0.039 -0.555,-0.039 -0.028,0 -0.041,0.016 -0.041,0.049z"/>
  <path id="4" class="fil2" d="M29.825 35.319l-0.398 0c-0.069,0 -0.104,-0.021 -0.104,-0.063 0,-0.042 0.032,-0.063 0.097,-0.063 0.112,0 0.268,-0.056 0.468,-0.167 0.107,-0.061 0.198,-0.131 0.272,-0.21 0.102,-0.107 0.195,-0.244 0.279,-0.411l-1.653 -3.676c-0.079,-0.182 -0.155,-0.306 -0.227,-0.374 -0.072,-0.067 -0.173,-0.119 -0.303,-0.157 -0.033,-0.009 -0.083,-0.016 -0.15,-0.021 -0.068,-0.004 -0.109,-0.007 -0.123,-0.007 -0.055,0 -0.083,-0.02 -0.083,-0.062 0,-0.042 0.06,-0.063 0.181,-0.063l1.012 0.021 0.886 -0.021c0.107,0 0.16,0.021 0.16,0.063 0,0.042 -0.035,0.062 -0.105,0.062 -0.069,0 -0.125,0.004 -0.167,0.011 -0.042,0.007 -0.081,0.023 -0.119,0.049 -0.037,0.025 -0.055,0.071 -0.055,0.136 0,0.107 0.053,0.286 0.16,0.537l1.032 2.497 0.028 0c0.158,-0.33 0.384,-0.832 0.677,-1.506 0.246,-0.568 0.432,-1 0.558,-1.298 0.042,-0.102 0.063,-0.188 0.063,-0.258 0,-0.07 -0.026,-0.113 -0.077,-0.129 -0.051,-0.016 -0.11,-0.027 -0.178,-0.032 -0.067,-0.004 -0.106,-0.007 -0.115,-0.007 -0.079,0 -0.118,-0.018 -0.118,-0.055 0,-0.047 0.065,-0.07 0.195,-0.07 0.177,0 0.32,0.002 0.429,0.007 0.109,0.005 0.21,0.009 0.303,0.014l0.656 -0.021c0.098,0 0.147,0.021 0.147,0.063 0,0.042 -0.038,0.062 -0.112,0.062 -0.07,0 -0.13,0.005 -0.181,0.014 -0.052,0.01 -0.102,0.031 -0.15,0.063 -0.049,0.033 -0.102,0.097 -0.157,0.192 -0.056,0.095 -0.135,0.243 -0.238,0.443l-0.934 1.876 -0.942 1.905c-0.13,0.265 -0.256,0.441 -0.377,0.527 -0.121,0.086 -0.3,0.129 -0.537,0.129z"/>
  <path id="5" class="fil2" d="M37.24 35.298l-3.16 0c-0.316,0 -0.536,0.029 -0.659,0.087 -0.123,0.058 -0.227,0.169 -0.31,0.331 -0.028,0.056 -0.058,0.133 -0.091,0.23 -0.014,0.052 -0.029,0.104 -0.045,0.157 -0.017,0.054 -0.032,0.091 -0.046,0.112 -0.014,0.021 -0.037,0.031 -0.069,0.031 -0.042,0 -0.063,-0.037 -0.063,-0.111 0,-0.033 0.011,-0.112 0.035,-0.237 0.023,-0.126 0.044,-0.245 0.062,-0.356l0.105 -0.53c0.019,-0.065 0.044,-0.098 0.077,-0.098 0.014,0 0.051,0.005 0.111,0.014 0.061,0.009 0.11,0.014 0.147,0.014 0.237,0 0.441,-0.093 0.61,-0.279 0.17,-0.186 0.255,-0.442 0.255,-0.767l0 -1.828c0,-0.288 -0.001,-0.556 -0.004,-0.802 -0.002,-0.247 -0.005,-0.472 -0.01,-0.677 0,-0.116 -0.022,-0.206 -0.066,-0.269 -0.044,-0.062 -0.108,-0.103 -0.192,-0.122 -0.084,-0.018 -0.188,-0.028 -0.314,-0.028 -0.079,0 -0.119,-0.02 -0.119,-0.062 0,-0.042 0.049,-0.063 0.147,-0.063l1.004 0.021 2.561 0c0.176,0 0.333,-0.002 0.47,-0.007 0.138,-0.005 0.274,-0.009 0.408,-0.014 0.098,0 0.147,0.021 0.147,0.063 0,0.042 -0.042,0.062 -0.126,0.062l-0.202 0.021c-0.172,0.033 -0.258,0.166 -0.258,0.398 0,0.074 -0.003,0.269 -0.01,0.583 -0.007,0.313 -0.011,0.612 -0.011,0.896l0 1.228c0,0.302 0.001,0.582 0.004,0.84 0.002,0.258 0.005,0.494 0.01,0.708 0,0.065 0.021,0.098 0.063,0.098l0.593 0 0.132 -0.014c0.033,0 0.049,0.03 0.049,0.091l-0.014 0.544 0 0.418c0,0.121 -0.003,0.207 -0.01,0.258 -0.007,0.052 -0.034,0.077 -0.081,0.077 -0.051,0 -0.076,-0.046 -0.076,-0.139l-0.035 -0.349c-0.028,-0.144 -0.061,-0.244 -0.098,-0.3 -0.079,-0.116 -0.197,-0.184 -0.356,-0.202 -0.158,-0.019 -0.304,-0.028 -0.439,-0.028l-0.126 0zm-3.083 -0.356l2.525 0c0.042,0 0.063,-0.033 0.063,-0.098 0,-0.032 0.002,-0.244 0.007,-0.635 0.005,-0.39 0.007,-0.695 0.007,-0.913l0 -1.228c0,-0.302 -0.001,-0.583 -0.003,-0.841 -0.003,-0.258 -0.006,-0.494 -0.011,-0.708 0,-0.065 -0.021,-0.097 -0.063,-0.097l-1.806 0c-0.042,0 -0.063,0.032 -0.063,0.097 0,0.033 -0.003,0.244 -0.007,0.635 -0.005,0.391 -0.007,0.695 -0.007,0.914l0 1.165c0,0.423 -0.04,0.753 -0.118,0.99 -0.096,0.289 -0.27,0.528 -0.524,0.719z"/>
  <path id="6" class="fil2" d="M39.933 35.193l0.105 0c0.069,0 0.104,0.019 0.104,0.056 0,0.046 -0.039,0.07 -0.118,0.07l-0.74 -0.021c-0.111,0 -0.243,0.002 -0.394,0.007 -0.151,0.004 -0.294,0.009 -0.429,0.014 -0.088,0 -0.132,-0.024 -0.132,-0.07 0,-0.037 0.027,-0.056 0.083,-0.056l0.217 -0.014c0.148,-0.018 0.269,-0.084 0.362,-0.195 0.075,-0.089 0.151,-0.233 0.231,-0.433l1.75 -4.381c0.08,-0.186 0.145,-0.279 0.196,-0.279 0.051,0 0.109,0.075 0.174,0.224 0.014,0.032 0.154,0.381 0.419,1.046 0.232,0.581 0.462,1.157 0.69,1.727 0.228,0.569 0.435,1.075 0.621,1.517 0.089,0.209 0.183,0.381 0.283,0.516 0.1,0.135 0.21,0.216 0.331,0.244 0.042,0.009 0.091,0.016 0.147,0.021 0.055,0.005 0.104,0.007 0.146,0.007 0.06,0 0.091,0.019 0.091,0.056 0,0.028 -0.021,0.046 -0.063,0.056 -0.042,0.009 -0.128,0.014 -0.258,0.014l-1.319 -0.014c-0.079,0 -0.133,-0.004 -0.164,-0.011 -0.03,-0.007 -0.045,-0.022 -0.045,-0.045 0,-0.037 0.033,-0.058 0.098,-0.063 0.051,-0.019 0.076,-0.053 0.076,-0.105 0,-0.009 -0.004,-0.027 -0.013,-0.055l-0.559 -1.479c-0.013,-0.033 -0.037,-0.049 -0.069,-0.049l-1.556 0c-0.028,0 -0.049,0.019 -0.063,0.056l-0.376 0.997c-0.07,0.177 -0.105,0.319 -0.105,0.426 0,0.07 0.021,0.123 0.063,0.16 0.042,0.037 0.114,0.056 0.216,0.056zm0.405 -2.044l1.283 0c0.033,0 0.044,-0.014 0.035,-0.042l-0.628 -1.723c-0.004,-0.018 -0.01,-0.032 -0.017,-0.042 -0.007,-0.009 -0.013,-0.016 -0.018,-0.021 -0.028,0.033 -0.041,0.054 -0.041,0.063l-0.642 1.716c-0.01,0.033 0,0.049 0.028,0.049z"/>
  <path class="fil2" d="M22.93 5.788l0 0.408c0,0.097 0,0.191 0.001,0.282 0.001,0.09 0.003,0.158 0.007,0.204 0.003,0.045 0.011,0.076 0.022,0.093 0.011,0.017 0.033,0.029 0.067,0.037 0.013,0.003 0.038,0.006 0.074,0.008 0.036,0.003 0.06,0.005 0.071,0.005 0.012,0 0.018,0.007 0.018,0.022 0,0.013 -0.012,0.02 -0.035,0.02 -0.085,0 -0.156,-0.001 -0.213,-0.002 -0.057,-0.002 -0.108,-0.003 -0.155,-0.005l-0.378 0.007c-0.023,0 -0.035,-0.007 -0.035,-0.02 0,-0.015 0.006,-0.022 0.018,-0.022 0.013,0 0.041,-0.002 0.082,-0.005 0.042,-0.002 0.076,-0.007 0.102,-0.013 0.026,-0.006 0.045,-0.017 0.057,-0.034 0.013,-0.017 0.02,-0.043 0.023,-0.078 0.003,-0.036 0.006,-0.108 0.007,-0.216 0.002,-0.109 0.002,-0.203 0.002,-0.283l0 -0.35 -0.002 -0.289c0,-0.053 -0.011,-0.079 -0.033,-0.079 -0.019,0 -0.061,0.014 -0.126,0.044 -0.044,0.02 -0.087,0.041 -0.13,0.061l-0.031 0.009c-0.01,-0.01 -0.015,-0.018 -0.015,-0.024 0,-0.012 0.006,-0.021 0.02,-0.029 0.013,-0.007 0.119,-0.077 0.317,-0.209 0.094,-0.063 0.159,-0.108 0.194,-0.132 0.014,-0.011 0.024,-0.018 0.032,-0.023 0.008,-0.004 0.017,-0.006 0.026,-0.006 0.016,0 0.024,0.015 0.024,0.046 0,0.022 -0.001,0.055 -0.002,0.099 -0.006,0.18 -0.009,0.338 -0.009,0.474z"/>
  <path id="1" class="fil2" d="M23.389 5.683c0,-0.15 0.051,-0.273 0.155,-0.37 0.104,-0.096 0.24,-0.144 0.409,-0.144 0.173,0 0.311,0.058 0.412,0.174 0.096,0.11 0.144,0.252 0.144,0.426 0,0.189 -0.05,0.369 -0.15,0.54 -0.081,0.137 -0.191,0.263 -0.331,0.379 -0.109,0.09 -0.22,0.161 -0.333,0.214 -0.01,0.006 -0.024,0.009 -0.04,0.009 -0.013,0 -0.02,-0.008 -0.02,-0.022 0,-0.008 0.002,-0.014 0.006,-0.019 0.004,-0.005 0.011,-0.011 0.021,-0.019 0.144,-0.088 0.268,-0.21 0.373,-0.366 0.133,-0.201 0.2,-0.419 0.2,-0.655 0,-0.183 -0.034,-0.326 -0.103,-0.427 -0.061,-0.09 -0.138,-0.135 -0.232,-0.135 -0.079,0 -0.143,0.031 -0.192,0.093 -0.048,0.061 -0.073,0.14 -0.073,0.236 0,0.113 0.025,0.206 0.073,0.28 0.061,0.091 0.134,0.136 0.221,0.136 0.039,0 0.069,-0.001 0.088,-0.005 0.019,-0.004 0.04,-0.011 0.062,-0.021 0.013,-0.009 0.022,-0.015 0.028,-0.019 0.006,-0.003 0.011,-0.005 0.016,-0.005 0.012,0 0.017,0.006 0.017,0.02 -0.001,0.004 -0.002,0.008 -0.004,0.013 -0.001,0.004 -0.004,0.008 -0.007,0.011 -0.029,0.032 -0.071,0.057 -0.124,0.075 -0.054,0.017 -0.109,0.026 -0.167,0.026 -0.145,0 -0.26,-0.048 -0.344,-0.143 -0.07,-0.081 -0.105,-0.175 -0.105,-0.282z"/>
  <path id="2" class="fil2" d="M24.762 6.082c0,-0.277 0.05,-0.494 0.15,-0.653 0.109,-0.173 0.269,-0.26 0.479,-0.26 0.214,0 0.373,0.093 0.476,0.28 0.078,0.142 0.117,0.32 0.117,0.534 0,0.276 -0.051,0.494 -0.152,0.654 -0.11,0.174 -0.269,0.261 -0.477,0.261 -0.213,0 -0.371,-0.094 -0.474,-0.28 -0.079,-0.144 -0.119,-0.323 -0.119,-0.536zm0.635 0.716c0.099,0 0.177,-0.063 0.235,-0.19 0.058,-0.128 0.087,-0.307 0.087,-0.54 0,-0.216 -0.028,-0.396 -0.086,-0.542 -0.067,-0.172 -0.164,-0.258 -0.289,-0.258 -0.098,0 -0.176,0.063 -0.232,0.19 -0.057,0.126 -0.085,0.306 -0.085,0.54 0,0.219 0.028,0.401 0.084,0.545 0.066,0.17 0.161,0.255 0.286,0.255z"/>
  <path id="3" class="fil2" d="M26.54 5.206l0.705 0c0.036,0 0.053,0.006 0.053,0.018 0,0.013 -0.005,0.026 -0.015,0.04 -0.091,0.129 -0.204,0.363 -0.337,0.701 -0.133,0.338 -0.207,0.577 -0.223,0.717 -0.002,0.008 -0.003,0.02 -0.003,0.035 0.002,0.019 0.003,0.034 0.003,0.046 0,0.022 -0.035,0.05 -0.103,0.084 -0.068,0.034 -0.127,0.051 -0.175,0.051 -0.021,0 -0.031,-0.009 -0.031,-0.027 0,-0.028 0.005,-0.058 0.015,-0.09 0.037,-0.127 0.114,-0.318 0.232,-0.574 0.134,-0.289 0.273,-0.555 0.417,-0.798l-0.571 0c-0.042,0 -0.081,0.003 -0.117,0.008 -0.037,0.005 -0.067,0.016 -0.091,0.032 -0.017,0.012 -0.033,0.031 -0.047,0.059 -0.014,0.028 -0.023,0.052 -0.026,0.072 -0.002,0.02 -0.01,0.03 -0.022,0.03 -0.011,0 -0.017,-0.011 -0.017,-0.033 0,-0.037 0.005,-0.105 0.015,-0.203 0.006,-0.053 0.012,-0.106 0.018,-0.159 0,-0.02 0.007,-0.031 0.022,-0.031 0.02,0.006 0.059,0.011 0.116,0.016 0.056,0.004 0.117,0.006 0.182,0.006z"/>
  <path class="fil2" d="M19.808 37.526l0 -1.032 -0.375 0.01c-0.074,0 -0.128,0.005 -0.164,0.015 -0.035,0.01 -0.062,0.03 -0.08,0.058 -0.008,0.014 -0.017,0.028 -0.025,0.043 -0.009,0.015 -0.015,0.031 -0.019,0.049 -0.004,0.018 -0.013,0.026 -0.027,0.026 -0.015,0 -0.022,-0.013 -0.022,-0.04 0,-0.023 0.007,-0.074 0.022,-0.151 0.011,-0.054 0.02,-0.098 0.028,-0.133 0.009,-0.035 0.019,-0.053 0.033,-0.053 0.003,0 0.016,0.005 0.038,0.015 0.021,0.01 0.045,0.015 0.07,0.015 0.081,0.008 0.164,0.013 0.252,0.013l0.996 0c0.054,0 0.099,-0.003 0.136,-0.008 0.037,-0.005 0.072,-0.011 0.106,-0.017 0.013,0 0.02,0.017 0.02,0.052l-0.008 0.292c-0.003,0.027 -0.011,0.041 -0.022,0.041 -0.019,0 -0.028,-0.017 -0.028,-0.051l-0.002 -0.027c0,-0.039 -0.021,-0.071 -0.063,-0.096 -0.051,-0.03 -0.129,-0.045 -0.234,-0.045l-0.317 -0.008 0 1.032c0,0.105 0,0.206 0.001,0.302 0.001,0.095 0.004,0.169 0.01,0.221 0.006,0.052 0.015,0.089 0.027,0.111 0.013,0.022 0.037,0.035 0.072,0.04l0.129 0.01c0.026,0 0.04,0.007 0.04,0.02 0,0.017 -0.016,0.025 -0.048,0.025 -0.087,0 -0.161,0 -0.223,-0.002 -0.061,-0.002 -0.118,-0.003 -0.172,-0.005l-0.317 0.007c-0.034,0 -0.05,-0.008 -0.05,-0.025 0,-0.013 0.013,-0.02 0.04,-0.02 0.018,0 0.033,-0.001 0.045,-0.002 0.012,-0.002 0.028,-0.005 0.049,-0.009 0.021,-0.004 0.037,-0.018 0.047,-0.04 0.01,-0.023 0.017,-0.055 0.022,-0.096 0.005,-0.041 0.009,-0.111 0.01,-0.21 0.002,-0.099 0.003,-0.208 0.003,-0.327z"/>
  <path id="1" class="fil2" d="M21.26 37.526l0 -0.443c0,-0.104 -0.001,-0.201 -0.001,-0.289 -0.001,-0.089 -0.002,-0.171 -0.004,-0.245 0,-0.042 -0.008,-0.074 -0.024,-0.096 -0.016,-0.023 -0.039,-0.038 -0.069,-0.044 -0.03,-0.007 -0.068,-0.011 -0.113,-0.011 -0.029,0 -0.043,-0.007 -0.043,-0.022 0,-0.015 0.018,-0.023 0.055,-0.023l0.362 0.008 0.63 -0.003 0.108 -0.015 0.04 -0.01c0.01,0 0.015,0.008 0.015,0.023 -0.005,0.016 -0.01,0.039 -0.014,0.069 -0.004,0.029 -0.006,0.061 -0.006,0.094l-0.013 0.166c-0.003,0.019 -0.011,0.028 -0.025,0.028 -0.015,0 -0.022,-0.012 -0.022,-0.035 0,-0.014 -0.001,-0.028 -0.003,-0.044 -0.002,-0.016 -0.007,-0.034 -0.015,-0.054 -0.008,-0.021 -0.022,-0.036 -0.04,-0.048 -0.027,-0.017 -0.06,-0.027 -0.098,-0.032 -0.039,-0.004 -0.098,-0.007 -0.178,-0.01 -0.08,-0.002 -0.149,-0.003 -0.207,-0.003 -0.012,0 -0.018,0.008 -0.018,0.025l0 0.636c0,0.019 0.006,0.028 0.018,0.028l0.135 0 0.041 0 0.035 0 0.03 0c0.077,0 0.131,-0.002 0.161,-0.005 0.057,0 0.096,-0.012 0.117,-0.035 0.021,-0.024 0.036,-0.036 0.044,-0.036 0.012,0 0.018,0.007 0.018,0.021 0,0.005 -0.002,0.015 -0.005,0.03 -0.01,0.047 -0.015,0.098 -0.015,0.153l-0.01 0.169c0,0.032 -0.008,0.048 -0.023,0.048 -0.015,0 -0.023,-0.008 -0.023,-0.023 -0.001,-0.018 -0.003,-0.034 -0.003,-0.046 -0.001,-0.013 -0.004,-0.03 -0.009,-0.051 -0.005,-0.021 -0.019,-0.04 -0.04,-0.058 -0.022,-0.017 -0.051,-0.028 -0.086,-0.032 -0.035,-0.005 -0.102,-0.007 -0.2,-0.008 -0.098,-0.001 -0.155,-0.001 -0.17,-0.001 -0.01,0 -0.015,0.008 -0.015,0.025l0 0.589c0,0.089 0.018,0.146 0.054,0.172 0.036,0.026 0.119,0.039 0.248,0.039 0.06,0 0.107,-0.001 0.141,-0.005 0.033,-0.003 0.065,-0.012 0.095,-0.025 0.059,-0.027 0.097,-0.089 0.114,-0.186 0.005,-0.025 0.014,-0.038 0.027,-0.038 0.009,0 0.014,0.003 0.017,0.01 0.002,0.007 0.003,0.019 0.003,0.035 0,0.037 -0.003,0.085 -0.01,0.144 -0.006,0.058 -0.014,0.104 -0.022,0.136 -0.009,0.032 -0.02,0.05 -0.034,0.056 -0.014,0.006 -0.048,0.009 -0.102,0.009 -0.17,0 -0.299,-0.002 -0.389,-0.005 -0.09,-0.003 -0.192,-0.007 -0.308,-0.01l-0.317 0.007c-0.034,0 -0.051,-0.008 -0.051,-0.025 0,-0.013 0.014,-0.02 0.041,-0.02 0.018,0 0.033,-0.001 0.045,-0.002 0.012,-0.002 0.028,-0.005 0.048,-0.009 0.02,-0.004 0.035,-0.018 0.046,-0.042 0.011,-0.023 0.019,-0.055 0.024,-0.095 0.005,-0.041 0.009,-0.11 0.01,-0.209 0.002,-0.099 0.003,-0.208 0.003,-0.327z"/>
  <path id="2" class="fil2" d="M23.185 37.526l0 -1.032 -0.375 0.01c-0.074,0 -0.128,0.005 -0.164,0.015 -0.035,0.01 -0.062,0.03 -0.08,0.058 -0.009,0.014 -0.017,0.028 -0.025,0.043 -0.009,0.015 -0.015,0.031 -0.019,0.049 -0.004,0.018 -0.013,0.026 -0.027,0.026 -0.015,0 -0.022,-0.013 -0.022,-0.04 0,-0.023 0.007,-0.074 0.022,-0.151 0.01,-0.054 0.02,-0.098 0.028,-0.133 0.008,-0.035 0.019,-0.053 0.033,-0.053 0.003,0 0.016,0.005 0.038,0.015 0.021,0.01 0.045,0.015 0.07,0.015 0.081,0.008 0.164,0.013 0.252,0.013l0.996 0c0.054,0 0.099,-0.003 0.136,-0.008 0.037,-0.005 0.072,-0.011 0.106,-0.017 0.013,0 0.02,0.017 0.02,0.052l-0.008 0.292c-0.003,0.027 -0.011,0.041 -0.022,0.041 -0.019,0 -0.028,-0.017 -0.028,-0.051l-0.003 -0.027c0,-0.039 -0.021,-0.071 -0.062,-0.096 -0.051,-0.03 -0.129,-0.045 -0.234,-0.045l-0.318 -0.008 0 1.032c0,0.105 0.001,0.206 0.002,0.302 0.001,0.095 0.004,0.169 0.01,0.221 0.006,0.052 0.015,0.089 0.027,0.111 0.013,0.022 0.037,0.035 0.072,0.04l0.128 0.01c0.027,0 0.041,0.007 0.041,0.02 0,0.017 -0.016,0.025 -0.048,0.025 -0.087,0 -0.162,0 -0.223,-0.002 -0.061,-0.002 -0.118,-0.003 -0.172,-0.005l-0.317 0.007c-0.034,0 -0.051,-0.008 -0.051,-0.025 0,-0.013 0.014,-0.02 0.041,-0.02 0.018,0 0.033,-0.001 0.045,-0.002 0.012,-0.002 0.028,-0.005 0.049,-0.009 0.021,-0.004 0.037,-0.018 0.047,-0.04 0.01,-0.023 0.017,-0.055 0.022,-0.096 0.005,-0.041 0.009,-0.111 0.01,-0.21 0.002,-0.099 0.003,-0.208 0.003,-0.327z"/>
  <path id="3" class="fil2" d="M24.363 37.304c0,-0.251 0.078,-0.469 0.236,-0.654 0.19,-0.221 0.457,-0.332 0.803,-0.332 0.312,0 0.559,0.085 0.742,0.254 0.183,0.169 0.274,0.399 0.274,0.687 0,0.295 -0.093,0.539 -0.279,0.732 -0.193,0.2 -0.447,0.3 -0.762,0.3 -0.334,0 -0.593,-0.108 -0.778,-0.325 -0.158,-0.184 -0.236,-0.405 -0.236,-0.662zm1.119 0.861c0.14,0 0.259,-0.045 0.358,-0.133 0.151,-0.136 0.226,-0.363 0.226,-0.68 0,-0.275 -0.07,-0.496 -0.21,-0.663 -0.14,-0.167 -0.316,-0.25 -0.527,-0.25 -0.173,0 -0.312,0.053 -0.418,0.158 -0.134,0.134 -0.201,0.344 -0.201,0.629 0,0.269 0.068,0.49 0.204,0.665 0.142,0.182 0.332,0.274 0.568,0.274z"/>
  <path id="4" class="fil2" d="M26.969 37.526l0 -0.443c0,-0.104 0,-0.201 -0.001,-0.289 -0.001,-0.089 -0.002,-0.171 -0.004,-0.245 0,-0.042 -0.008,-0.074 -0.023,-0.096 -0.016,-0.023 -0.039,-0.038 -0.07,-0.044 -0.03,-0.007 -0.068,-0.011 -0.113,-0.011 -0.028,0 -0.043,-0.007 -0.043,-0.022 0,-0.015 0.019,-0.023 0.056,-0.023l0.342 0.008 0.307 -0.008c0.2,0 0.346,0.046 0.438,0.139 0.065,0.065 0.098,0.145 0.098,0.239 0,0.095 -0.025,0.181 -0.076,0.256 -0.036,0.056 -0.097,0.117 -0.181,0.184 0.124,0.042 0.227,0.104 0.307,0.186 0.101,0.102 0.151,0.222 0.151,0.357 0,0.15 -0.053,0.275 -0.161,0.375 -0.122,0.116 -0.293,0.174 -0.511,0.174 -0.018,0 -0.077,-0.002 -0.176,-0.008 -0.099,-0.005 -0.162,-0.007 -0.189,-0.007l-0.317 0.007c-0.033,0 -0.05,-0.008 -0.05,-0.025 0,-0.013 0.014,-0.02 0.04,-0.02 0.019,0 0.034,-0.001 0.046,-0.002 0.011,-0.002 0.027,-0.005 0.047,-0.009 0.021,-0.004 0.036,-0.018 0.047,-0.042 0.011,-0.023 0.019,-0.055 0.024,-0.095 0.005,-0.041 0.008,-0.11 0.01,-0.209 0.002,-0.099 0.002,-0.208 0.002,-0.327zm0.302 -0.244l0 0.596c0,0.089 0.005,0.147 0.014,0.175 0.01,0.028 0.034,0.05 0.075,0.067 0.03,0.011 0.059,0.019 0.088,0.024 0.028,0.004 0.06,0.006 0.095,0.006 0.076,0 0.14,-0.021 0.194,-0.063 0.074,-0.057 0.111,-0.144 0.111,-0.259 0,-0.093 -0.017,-0.179 -0.051,-0.259 -0.042,-0.101 -0.106,-0.182 -0.193,-0.242 -0.031,-0.022 -0.06,-0.037 -0.09,-0.047 -0.029,-0.009 -0.069,-0.013 -0.119,-0.013l-0.108 -0.003c-0.011,0 -0.016,0.006 -0.016,0.018zm0 -0.778l0 0.622c0,0.015 0.009,0.024 0.027,0.029 0.017,0.004 0.054,0.006 0.109,0.006 0.084,0 0.145,-0.016 0.181,-0.048 0.069,-0.055 0.104,-0.144 0.104,-0.267 0,-0.095 -0.025,-0.181 -0.076,-0.256 -0.06,-0.089 -0.14,-0.134 -0.239,-0.134 -0.038,0 -0.066,0.002 -0.082,0.007 -0.016,0.004 -0.024,0.018 -0.024,0.041z"/>
  <path id="5" class="fil2" d="M28.474 37.304c0,-0.251 0.079,-0.469 0.237,-0.654 0.189,-0.221 0.457,-0.332 0.803,-0.332 0.312,0 0.559,0.085 0.742,0.254 0.183,0.169 0.274,0.399 0.274,0.687 0,0.295 -0.093,0.539 -0.279,0.732 -0.193,0.2 -0.447,0.3 -0.763,0.3 -0.333,0 -0.593,-0.108 -0.777,-0.325 -0.158,-0.184 -0.237,-0.405 -0.237,-0.662zm1.12 0.861c0.139,0 0.258,-0.045 0.357,-0.133 0.151,-0.136 0.227,-0.363 0.227,-0.68 0,-0.275 -0.07,-0.496 -0.21,-0.663 -0.14,-0.167 -0.316,-0.25 -0.527,-0.25 -0.173,0 -0.312,0.053 -0.418,0.158 -0.134,0.134 -0.201,0.344 -0.201,0.629 0,0.269 0.067,0.49 0.203,0.665 0.143,0.182 0.333,0.274 0.569,0.274z"/>
  <path class="fil2" d="M18.311 27.662l0 0.417c0,0.099 0.001,0.194 0.001,0.284 0.001,0.09 0.004,0.16 0.01,0.209 0.005,0.049 0.015,0.083 0.028,0.104 0.014,0.02 0.039,0.033 0.075,0.038l0.133 0.009c0.028,0 0.042,0.007 0.042,0.019 0,0.016 -0.017,0.024 -0.052,0.024 -0.087,0 -0.162,-0.001 -0.225,-0.002 -0.063,-0.002 -0.122,-0.004 -0.178,-0.005l-0.367 0.007c-0.035,0 -0.052,-0.008 -0.052,-0.024 0,-0.012 0.013,-0.019 0.04,-0.019l0.135 -0.009c0.035,-0.005 0.059,-0.018 0.074,-0.039 0.014,-0.022 0.023,-0.051 0.028,-0.089 0.005,-0.038 0.008,-0.104 0.01,-0.198 0.001,-0.094 0.002,-0.197 0.002,-0.309l0 -0.104c-0.052,0.017 -0.106,0.03 -0.161,0.04 -0.055,0.009 -0.113,0.014 -0.173,0.014 -0.209,0 -0.361,-0.035 -0.457,-0.107 -0.113,-0.082 -0.169,-0.223 -0.169,-0.424l0 -0.047 0 -0.043 0 -0.035 0 -0.031 0 -0.026c0,-0.029 0,-0.056 -0.001,-0.082 -0.001,-0.026 -0.001,-0.051 -0.001,-0.075 0,-0.039 -0.008,-0.069 -0.025,-0.091 -0.017,-0.021 -0.041,-0.035 -0.072,-0.041 -0.032,-0.007 -0.07,-0.01 -0.116,-0.01 -0.03,0 -0.045,-0.007 -0.045,-0.021 0,-0.014 0.018,-0.021 0.054,-0.021l0.375 0.007 0.315 -0.007c0.038,0 0.057,0.007 0.057,0.021 0,0.014 -0.017,0.021 -0.05,0.021l-0.081 0.007c-0.036,0.007 -0.062,0.02 -0.077,0.04 -0.015,0.019 -0.024,0.051 -0.027,0.095 0,0.026 -0.002,0.075 -0.005,0.147 -0.003,0.073 -0.004,0.117 -0.004,0.133 0,0.171 0.035,0.293 0.106,0.367 0.065,0.068 0.166,0.102 0.303,0.102 0.057,0 0.108,-0.006 0.153,-0.018 0.045,-0.011 0.073,-0.024 0.084,-0.036 0.011,-0.013 0.017,-0.039 0.017,-0.078l0 -0.09 0 -0.223 0 -0.064 0 -0.048 0 -0.035 0 -0.029c0,-0.052 -0.002,-0.094 -0.007,-0.128 0,-0.041 -0.008,-0.071 -0.025,-0.092 -0.017,-0.02 -0.04,-0.033 -0.07,-0.039 -0.03,-0.006 -0.057,-0.009 -0.082,-0.009 -0.024,-0.001 -0.041,-0.002 -0.051,-0.002 -0.033,0 -0.049,-0.007 -0.049,-0.021 0,-0.014 0.019,-0.021 0.059,-0.021l0.4 0.007 0.289 -0.007c0.037,0 0.055,0.007 0.055,0.021 0,0.014 -0.016,0.021 -0.048,0.021l-0.075 0.007c-0.064,0.012 -0.095,0.057 -0.095,0.135 0,0.015 -0.001,0.083 -0.002,0.204 -0.002,0.122 -0.003,0.221 -0.003,0.299z"/>
  <path id="1" class="fil2" d="M20.486 28.079l0 -0.417 -0.002 -0.228c-0.117,0.133 -0.203,0.231 -0.258,0.294 -0.113,0.13 -0.203,0.236 -0.273,0.318 -0.114,0.134 -0.219,0.261 -0.315,0.381 -0.109,0.134 -0.197,0.247 -0.263,0.339 -0.038,0 -0.069,-0.001 -0.094,-0.002 -0.024,-0.002 -0.048,-0.004 -0.072,-0.005l-0.251 0.007c-0.032,0 -0.047,-0.008 -0.047,-0.024 0,-0.012 0.012,-0.019 0.038,-0.019 0.017,0 0.031,0 0.042,-0.002 0.011,-0.002 0.026,-0.004 0.045,-0.008 0.019,-0.004 0.034,-0.017 0.044,-0.039 0.01,-0.023 0.018,-0.053 0.023,-0.09 0.004,-0.038 0.007,-0.104 0.009,-0.197 0.002,-0.093 0.002,-0.196 0.002,-0.308l0 -0.417c0,-0.098 0,-0.189 -0.001,-0.273 -0.001,-0.083 -0.002,-0.16 -0.003,-0.23 0,-0.039 -0.008,-0.069 -0.023,-0.091 -0.015,-0.021 -0.037,-0.035 -0.065,-0.041 -0.028,-0.007 -0.064,-0.01 -0.107,-0.01 -0.026,0 -0.04,-0.007 -0.04,-0.021 0,-0.014 0.017,-0.021 0.05,-0.021l0.341 0.007 0.299 -0.007c0.033,0 0.049,0.007 0.049,0.021 0,0.014 -0.014,0.021 -0.042,0.021l-0.069 0.007c-0.058,0.012 -0.088,0.057 -0.088,0.135 0,0.015 0,0.083 -0.002,0.204 -0.002,0.122 -0.002,0.221 -0.002,0.299l0 0.417 0.002 0.381 0.54 -0.642c0.147,-0.175 0.23,-0.274 0.249,-0.296 0.068,-0.082 0.144,-0.176 0.229,-0.281 0.084,-0.105 0.155,-0.194 0.212,-0.266l0.294 0c0.033,0 0.049,0.007 0.049,0.021 0,0.014 -0.014,0.021 -0.042,0.021l-0.069 0.007c-0.059,0.012 -0.088,0.057 -0.088,0.135 0,0.015 -0.001,0.083 -0.002,0.204 -0.002,0.122 -0.003,0.221 -0.003,0.299l0 0.417c0,0.099 0.001,0.194 0.002,0.284 0,0.09 0.004,0.16 0.009,0.209 0.006,0.049 0.014,0.083 0.026,0.104 0.012,0.02 0.035,0.033 0.068,0.038l0.121 0.009c0.025,0 0.037,0.007 0.037,0.019 0,0.016 -0.015,0.024 -0.047,0.024 -0.08,0 -0.15,-0.001 -0.207,-0.002 -0.058,-0.002 -0.112,-0.004 -0.163,-0.005l-0.296 0.007c-0.033,0 -0.049,-0.008 -0.049,-0.024 0,-0.012 0.012,-0.019 0.037,-0.019 0.018,0 0.032,0 0.043,-0.002 0.011,-0.002 0.026,-0.004 0.045,-0.008 0.019,-0.004 0.034,-0.017 0.044,-0.039 0.01,-0.023 0.018,-0.053 0.022,-0.09 0.005,-0.038 0.008,-0.104 0.01,-0.197 0.002,-0.093 0.002,-0.196 0.002,-0.308z"/>
  <path id="2" class="fil2" d="M21.875 28.079l0 -0.972 -0.353 0.01c-0.07,0 -0.121,0.005 -0.154,0.014 -0.033,0.01 -0.059,0.028 -0.076,0.055 -0.008,0.012 -0.016,0.026 -0.024,0.04 -0.008,0.014 -0.014,0.029 -0.017,0.046 -0.004,0.017 -0.013,0.025 -0.025,0.025 -0.015,0 -0.022,-0.013 -0.022,-0.038 0,-0.022 0.007,-0.07 0.022,-0.142 0.009,-0.051 0.018,-0.093 0.026,-0.126 0.008,-0.033 0.018,-0.049 0.03,-0.049 0.004,0 0.015,0.004 0.036,0.014 0.021,0.009 0.043,0.014 0.066,0.014 0.076,0.008 0.155,0.012 0.237,0.012l0.939 0c0.05,0 0.093,-0.003 0.128,-0.007 0.034,-0.005 0.067,-0.011 0.099,-0.017 0.013,0 0.019,0.017 0.019,0.05l-0.007 0.275c-0.003,0.025 -0.01,0.038 -0.021,0.038 -0.018,0 -0.026,-0.016 -0.026,-0.048l-0.003 -0.026c0,-0.036 -0.02,-0.066 -0.059,-0.09 -0.047,-0.028 -0.121,-0.043 -0.22,-0.043l-0.299 -0.007 0 0.972c0,0.099 0,0.194 0.001,0.284 0.001,0.09 0.004,0.16 0.01,0.209 0.005,0.049 0.014,0.083 0.026,0.104 0.012,0.02 0.034,0.033 0.067,0.038l0.121 0.009c0.025,0 0.038,0.007 0.038,0.019 0,0.016 -0.015,0.024 -0.045,0.024 -0.082,0 -0.152,-0.001 -0.21,-0.002 -0.057,-0.002 -0.111,-0.004 -0.162,-0.005l-0.299 0.007c-0.031,0 -0.047,-0.008 -0.047,-0.024 0,-0.012 0.013,-0.019 0.038,-0.019 0.017,0 0.032,0 0.043,-0.002 0.011,-0.002 0.026,-0.004 0.046,-0.008 0.02,-0.004 0.034,-0.017 0.044,-0.038 0.009,-0.022 0.016,-0.052 0.021,-0.09 0.005,-0.039 0.008,-0.105 0.009,-0.198 0.002,-0.093 0.003,-0.196 0.003,-0.308z"/>
  <path id="3" class="fil2" d="M23.247 28.723l0.035 0c0.024,0 0.036,0.007 0.036,0.019 0,0.016 -0.014,0.024 -0.04,0.024l-0.252 -0.007c-0.037,0 -0.082,0.001 -0.133,0.002 -0.052,0.002 -0.1,0.003 -0.146,0.005 -0.03,0 -0.045,-0.008 -0.045,-0.024 0,-0.012 0.009,-0.019 0.028,-0.019l0.074 -0.004c0.05,-0.007 0.091,-0.029 0.123,-0.067 0.025,-0.03 0.051,-0.079 0.078,-0.147l0.595 -1.488c0.027,-0.063 0.049,-0.094 0.066,-0.094 0.018,0 0.037,0.025 0.059,0.075 0.005,0.011 0.053,0.13 0.143,0.356 0.079,0.197 0.157,0.393 0.234,0.586 0.078,0.194 0.148,0.366 0.211,0.516 0.03,0.071 0.062,0.129 0.096,0.175 0.034,0.046 0.072,0.073 0.113,0.083 0.014,0.003 0.03,0.005 0.049,0.007 0.019,0.002 0.036,0.002 0.05,0.002 0.021,0 0.031,0.007 0.031,0.019 0,0.01 -0.007,0.016 -0.021,0.019 -0.015,0.003 -0.044,0.005 -0.088,0.005l-0.448 -0.005c-0.027,0 -0.045,-0.001 -0.056,-0.003 -0.01,-0.003 -0.015,-0.008 -0.015,-0.016 0,-0.012 0.011,-0.019 0.033,-0.021 0.018,-0.006 0.026,-0.018 0.026,-0.036 0,-0.003 -0.001,-0.009 -0.005,-0.019l-0.189 -0.502c-0.005,-0.011 -0.013,-0.016 -0.024,-0.016l-0.528 0c-0.01,0 -0.017,0.006 -0.021,0.019l-0.128 0.338c-0.024,0.06 -0.036,0.109 -0.036,0.145 0,0.024 0.007,0.042 0.021,0.054 0.015,0.013 0.039,0.019 0.074,0.019zm0.137 -0.694l0.436 0c0.011,0 0.015,-0.005 0.012,-0.014l-0.213 -0.585c-0.002,-0.007 -0.004,-0.011 -0.006,-0.015 -0.003,-0.003 -0.004,-0.005 -0.006,-0.007 -0.01,0.011 -0.014,0.018 -0.014,0.022l-0.218 0.583c-0.003,0.011 0,0.016 0.009,0.016z"/>
  <path id="4" class="fil2" d="M24.905 28.723l0.036 0c0.024,0 0.035,0.007 0.035,0.019 0,0.016 -0.013,0.024 -0.04,0.024l-0.251 -0.007c-0.038,0 -0.082,0.001 -0.134,0.002 -0.051,0.002 -0.1,0.003 -0.146,0.005 -0.03,0 -0.045,-0.008 -0.045,-0.024 0,-0.012 0.01,-0.019 0.029,-0.019l0.073 -0.004c0.051,-0.007 0.092,-0.029 0.124,-0.067 0.025,-0.03 0.051,-0.079 0.078,-0.147l0.594 -1.488c0.027,-0.063 0.049,-0.094 0.067,-0.094 0.017,0 0.037,0.025 0.059,0.075 0.005,0.011 0.052,0.13 0.142,0.356 0.079,0.197 0.157,0.393 0.235,0.586 0.077,0.194 0.147,0.366 0.211,0.516 0.03,0.071 0.062,0.129 0.096,0.175 0.034,0.046 0.071,0.073 0.112,0.083 0.014,0.003 0.031,0.005 0.05,0.007 0.019,0.002 0.036,0.002 0.05,0.002 0.02,0 0.031,0.007 0.031,0.019 0,0.01 -0.008,0.016 -0.022,0.019 -0.014,0.003 -0.043,0.005 -0.087,0.005l-0.448 -0.005c-0.027,0 -0.046,-0.001 -0.056,-0.003 -0.01,-0.003 -0.015,-0.008 -0.015,-0.016 0,-0.012 0.011,-0.019 0.033,-0.021 0.017,-0.006 0.026,-0.018 0.026,-0.036 0,-0.003 -0.002,-0.009 -0.005,-0.019l-0.46 -1.236c-0.001,-0.007 -0.003,-0.011 -0.005,-0.015 -0.003,-0.003 -0.005,-0.005 -0.006,-0.007 -0.008,0.011 -0.013,0.018 -0.015,0.022l-0.405 1.075c-0.023,0.067 -0.035,0.115 -0.035,0.145 0,0.024 0.007,0.042 0.021,0.054 0.014,0.013 0.039,0.019 0.073,0.019z"/>
  <path id="5" class="fil2" d="M27.931 28.079l0 -0.417 -0.002 -0.228c-0.117,0.133 -0.203,0.231 -0.258,0.294 -0.113,0.13 -0.203,0.236 -0.273,0.318 -0.114,0.134 -0.219,0.261 -0.315,0.381 -0.109,0.134 -0.197,0.247 -0.263,0.339 -0.038,0 -0.069,-0.001 -0.094,-0.002 -0.024,-0.002 -0.048,-0.004 -0.072,-0.005l-0.251 0.007c-0.032,0 -0.047,-0.008 -0.047,-0.024 0,-0.012 0.012,-0.019 0.037,-0.019 0.018,0 0.032,0 0.043,-0.002 0.011,-0.002 0.026,-0.004 0.045,-0.008 0.019,-0.004 0.034,-0.017 0.044,-0.039 0.01,-0.023 0.018,-0.053 0.022,-0.09 0.005,-0.038 0.008,-0.104 0.01,-0.197 0.002,-0.093 0.002,-0.196 0.002,-0.308l0 -0.417c0,-0.098 0,-0.189 -0.001,-0.273 -0.001,-0.083 -0.002,-0.16 -0.003,-0.23 0,-0.039 -0.008,-0.069 -0.023,-0.091 -0.015,-0.021 -0.037,-0.035 -0.065,-0.041 -0.029,-0.007 -0.064,-0.01 -0.107,-0.01 -0.027,0 -0.04,-0.007 -0.04,-0.021 0,-0.014 0.017,-0.021 0.05,-0.021l0.341 0.007 0.299 -0.007c0.033,0 0.049,0.007 0.049,0.021 0,0.014 -0.014,0.021 -0.042,0.021l-0.069 0.007c-0.059,0.012 -0.088,0.057 -0.088,0.135 0,0.015 -0.001,0.083 -0.002,0.204 -0.002,0.122 -0.002,0.221 -0.002,0.299l0 0.417 0.002 0.381 0.54 -0.642c0.147,-0.175 0.23,-0.274 0.249,-0.296 0.068,-0.082 0.144,-0.176 0.229,-0.281 0.084,-0.105 0.155,-0.194 0.212,-0.266l0.293 0c0.034,0 0.05,0.007 0.05,0.021 0,0.014 -0.014,0.021 -0.042,0.021l-0.069 0.007c-0.059,0.012 -0.088,0.057 -0.088,0.135 0,0.015 -0.001,0.083 -0.002,0.204 -0.002,0.122 -0.003,0.221 -0.003,0.299l0 0.417c0,0.099 0.001,0.194 0.002,0.284 0,0.09 0.004,0.16 0.009,0.209 0.006,0.049 0.014,0.083 0.026,0.104 0.012,0.02 0.035,0.033 0.068,0.038l0.121 0.009c0.025,0 0.037,0.007 0.037,0.019 0,0.016 -0.015,0.024 -0.047,0.024 -0.081,0 -0.15,-0.001 -0.207,-0.002 -0.058,-0.002 -0.112,-0.004 -0.163,-0.005l-0.296 0.007c-0.033,0 -0.05,-0.008 -0.05,-0.024 0,-0.012 0.013,-0.019 0.038,-0.019 0.018,0 0.032,0 0.043,-0.002 0.011,-0.002 0.026,-0.004 0.045,-0.008 0.019,-0.004 0.034,-0.017 0.044,-0.039 0.01,-0.023 0.018,-0.053 0.022,-0.09 0.005,-0.038 0.008,-0.104 0.01,-0.197 0.001,-0.093 0.002,-0.196 0.002,-0.308z"/>
  <path id="6" class="fil2" d="M29.005 28.079l0 -0.417c0,-0.098 -0.001,-0.189 -0.002,-0.273 0,-0.083 -0.002,-0.16 -0.003,-0.23 0,-0.039 -0.008,-0.069 -0.023,-0.091 -0.015,-0.021 -0.036,-0.035 -0.065,-0.041 -0.028,-0.007 -0.064,-0.01 -0.106,-0.01 -0.027,0 -0.041,-0.007 -0.041,-0.021 0,-0.014 0.017,-0.021 0.05,-0.021l0.341 0.007 0.299 -0.007c0.033,0 0.05,0.007 0.05,0.021 0,0.014 -0.015,0.021 -0.043,0.021l-0.069 0.007c-0.058,0.012 -0.087,0.057 -0.087,0.135 0,0.026 -0.002,0.092 -0.004,0.198 -0.002,0.107 -0.004,0.208 -0.004,0.305l0 0.417c0,0.103 0.001,0.198 0.002,0.285 0,0.088 0.002,0.168 0.003,0.241 0,0.022 0.007,0.033 0.022,0.033l0.552 0c0.014,0 0.021,-0.011 0.021,-0.033 0,-0.011 0.001,-0.083 0.002,-0.216 0.002,-0.132 0.003,-0.236 0.003,-0.31l0 -0.417c0,-0.098 -0.001,-0.189 -0.002,-0.273 0,-0.083 -0.002,-0.16 -0.003,-0.23 0,-0.039 -0.008,-0.069 -0.023,-0.091 -0.015,-0.021 -0.036,-0.035 -0.065,-0.041 -0.028,-0.007 -0.064,-0.01 -0.106,-0.01 -0.027,0 -0.041,-0.007 -0.041,-0.021 0,-0.014 0.017,-0.021 0.05,-0.021l0.341 0.007 0.299 -0.007c0.033,0 0.05,0.007 0.05,0.021 0,0.014 -0.015,0.021 -0.043,0.021l-0.069 0.007c-0.058,0.012 -0.087,0.057 -0.087,0.135 0,0.026 -0.002,0.092 -0.004,0.198 -0.002,0.107 -0.004,0.208 -0.004,0.305l0 0.417c0,0.103 0.001,0.198 0.002,0.285 0,0.088 0.002,0.168 0.003,0.241 0,0.022 0.007,0.033 0.022,0.033l0.552 0c0.014,0 0.021,-0.011 0.021,-0.033 0,-0.011 0.001,-0.083 0.002,-0.216 0.002,-0.132 0.003,-0.236 0.003,-0.31l0 -0.417c0,-0.098 -0.001,-0.189 -0.001,-0.273 -0.001,-0.083 -0.002,-0.16 -0.004,-0.23 0,-0.039 -0.008,-0.069 -0.023,-0.091 -0.015,-0.021 -0.036,-0.035 -0.065,-0.041 -0.028,-0.007 -0.064,-0.01 -0.106,-0.01 -0.027,0 -0.041,-0.007 -0.041,-0.021 0,-0.014 0.017,-0.021 0.05,-0.021l0.341 0.007 0.299 -0.007c0.033,0 0.05,0.007 0.05,0.021 0,0.014 -0.015,0.021 -0.043,0.021l-0.069 0.007c-0.058,0.012 -0.087,0.057 -0.087,0.135 0,0.026 -0.002,0.092 -0.004,0.198 -0.002,0.107 -0.003,0.208 -0.003,0.305l0 0.417c0,0.103 0,0.198 0.001,0.285 0.001,0.088 0.002,0.168 0.003,0.241 0,0.022 0.007,0.033 0.022,0.033l0.201 0 0.045 -0.005c0.011,0 0.017,0.011 0.017,0.031l-0.005 0.185 0 0.142c0,0.041 -0.001,0.07 -0.004,0.088 -0.002,0.017 -0.011,0.026 -0.027,0.026 -0.017,0 -0.026,-0.016 -0.026,-0.048l-0.012 -0.118c-0.009,-0.049 -0.02,-0.083 -0.033,-0.102 -0.027,-0.039 -0.067,-0.062 -0.121,-0.069 -0.054,-0.006 -0.103,-0.009 -0.149,-0.009l-0.043 0 -1.817 0 -0.299 0.007c-0.031,0 -0.047,-0.008 -0.047,-0.024 0,-0.012 0.013,-0.019 0.038,-0.019 0.017,0 0.031,0 0.042,-0.002 0.011,-0.002 0.027,-0.004 0.045,-0.008 0.019,-0.004 0.034,-0.017 0.044,-0.039 0.011,-0.023 0.018,-0.053 0.023,-0.09 0.005,-0.038 0.008,-0.104 0.009,-0.197 0.002,-0.093 0.003,-0.196 0.003,-0.308z"/>
  <path id="7" class="fil2" d="M31.874 28.079l0 -0.417c0,-0.098 0,-0.189 -0.001,-0.273 -0.001,-0.083 -0.002,-0.16 -0.004,-0.23 0,-0.039 -0.007,-0.069 -0.022,-0.091 -0.015,-0.021 -0.037,-0.035 -0.065,-0.041 -0.029,-0.007 -0.064,-0.01 -0.107,-0.01 -0.027,0 -0.04,-0.007 -0.04,-0.021 0,-0.014 0.017,-0.021 0.052,-0.021l0.341 0.007 0.592 -0.003 0.102 -0.014 0.038 -0.009c0.01,0 0.014,0.007 0.014,0.021 -0.004,0.016 -0.009,0.038 -0.013,0.065 -0.003,0.028 -0.005,0.057 -0.005,0.089l-0.012 0.156c-0.003,0.018 -0.011,0.027 -0.024,0.027 -0.014,0 -0.021,-0.012 -0.021,-0.034 0,-0.012 -0.001,-0.026 -0.003,-0.041 -0.001,-0.015 -0.006,-0.032 -0.014,-0.051 -0.008,-0.019 -0.02,-0.034 -0.038,-0.045 -0.025,-0.016 -0.056,-0.026 -0.092,-0.03 -0.037,-0.004 -0.092,-0.007 -0.167,-0.009 -0.075,-0.003 -0.14,-0.004 -0.196,-0.004 -0.011,0 -0.016,0.008 -0.016,0.024l0 0.599c0,0.018 0.005,0.026 0.016,0.026l0.128 0 0.038 0 0.033 0 0.029 0c0.072,0 0.123,-0.001 0.151,-0.004 0.054,0 0.091,-0.011 0.111,-0.033 0.019,-0.023 0.033,-0.034 0.041,-0.034 0.011,0 0.017,0.007 0.017,0.019 0,0.005 -0.002,0.015 -0.005,0.029 -0.01,0.044 -0.014,0.092 -0.014,0.144l-0.01 0.159c0,0.03 -0.007,0.045 -0.021,0.045 -0.014,0 -0.021,-0.007 -0.021,-0.021 -0.002,-0.018 -0.003,-0.032 -0.004,-0.044 -0.001,-0.012 -0.004,-0.028 -0.008,-0.047 -0.005,-0.02 -0.018,-0.038 -0.038,-0.055 -0.021,-0.017 -0.048,-0.027 -0.081,-0.031 -0.033,-0.004 -0.096,-0.006 -0.188,-0.007 -0.093,-0.001 -0.146,-0.001 -0.16,-0.001 -0.01,0 -0.014,0.008 -0.014,0.024l0 0.554c0,0.084 0.017,0.138 0.051,0.162 0.034,0.025 0.111,0.037 0.233,0.037 0.057,0 0.101,-0.001 0.133,-0.005 0.031,-0.003 0.061,-0.011 0.09,-0.023 0.055,-0.026 0.091,-0.084 0.106,-0.176 0.005,-0.023 0.014,-0.035 0.026,-0.035 0.008,0 0.013,0.003 0.016,0.009 0.002,0.007 0.003,0.018 0.003,0.033 0,0.035 -0.003,0.08 -0.009,0.136 -0.006,0.055 -0.014,0.097 -0.021,0.128 -0.008,0.03 -0.019,0.047 -0.032,0.053 -0.014,0.005 -0.046,0.008 -0.096,0.008 -0.16,0 -0.282,-0.001 -0.366,-0.005 -0.085,-0.003 -0.182,-0.006 -0.291,-0.009l-0.298 0.007c-0.032,0 -0.048,-0.008 -0.048,-0.024 0,-0.012 0.013,-0.019 0.038,-0.019 0.018,0 0.032,0 0.043,-0.002 0.011,-0.002 0.026,-0.004 0.045,-0.008 0.019,-0.004 0.033,-0.017 0.044,-0.039 0.01,-0.023 0.018,-0.053 0.022,-0.09 0.005,-0.038 0.008,-0.104 0.01,-0.197 0.001,-0.093 0.002,-0.196 0.002,-0.308z"/>
 </g>
</svg>
